<svg xmlns="http://www.w3.org/2000/svg" viewBox="0 0 900 573" width="900" height="573"><path fill="#141414" fill-rule="evenodd" d="M662.2 55.3L664.7 55.2L667.0 58.3L659.1 70.5L655.0 80.9L655.1 87.5L657.8 89.3L660.0 93.9L659.0 98.9L659.0 120.1L660.0 121.9L661.0 138.1L650.0 166.9L650.0 170.3L653.0 178.9L650.0 185.9L650.0 230.1L634.0 257.7L635.0 280.3L630.0 287.7L629.0 316.3L624.0 320.9L625.0 323.9L625.0 342.1L626.0 343.9L627.0 368.1L617.7 376.8L615.1 378.0L595.9 377.0L591.1 379.0L545.9 379.0L544.6 379.9L543.1 379.0L525.9 379.0L521.9 380.0L505.1 378.0L471.9 378.0L470.1 377.0L451.9 377.0L450.1 378.0L448.1 377.0L431.9 377.0L430.1 378.0L389.9 377.0L388.1 378.0L383.4 377.1L365.9 379.0L360.3 376.0L355.9 376.0L339.1 383.0L324.7 382.0L320.4 380.1L224.1 391.0L213.1 389.0L194.7 389.0L192.3 391.0L187.5 391.1L162.1 404.0L152.7 404.0L151.1 401.5L146.0 376.7L142.0 364.3L141.0 355.7L136.0 343.3L135.0 331.7L132.0 324.3L125.0 287.7L87.0 183.3L87.0 162.9L88.0 161.1L89.0 135.9L90.0 134.1L88.0 96.9L87.0 95.1L87.0 79.9L88.2 77.3L89.7 76.0L97.7 75.2L104.2 87.7L133.5 115.9L153.3 117.0L160.5 125.9L175.3 125.0L192.7 135.0L212.3 128.0L214.3 132.8L224.5 136.1L227.9 138.5L224.0 147.7L224.5 149.9L242.1 146.0L259.6 151.9L265.7 148.8L266.9 146.5L277.2 113.3L290.9 101.5L292.2 88.3L293.7 87.0L299.7 86.8L324.3 60.2L331.3 59.0L353.7 69.2L356.0 80.3L357.3 81.8L371.5 86.1L380.5 94.9L400.5 101.1L433.5 120.9L480.5 137.1L491.5 141.9L494.5 142.1L497.8 144.3L499.7 149.0L514.1 147.0L525.7 154.0L540.1 154.0L554.5 151.9L572.7 140.8L576.8 136.7L584.1 118.5L588.9 114.5L588.0 105.9L589.3 104.2L594.7 102.0L597.8 102.3L598.9 107.6L593.2 110.3L593.0 114.1L599.7 116.8L609.9 105.5L611.2 96.3L626.8 81.7L628.0 72.7L630.3 67.2L643.5 70.9L662.1 55.4ZM332.2 78.3L337.5 79.1L341.9 82.5L345.0 106.3L346.3 108.8L354.1 108.0L356.7 109.2L398.3 144.8L435.7 163.2L480.5 194.9L502.7 202.2L503.8 208.7L491.1 211.0L472.7 212.0L442.5 194.1L413.5 186.9L388.5 170.1L379.7 169.0L370.5 175.9L362.7 175.0L352.7 160.2L336.7 157.0L333.1 161.5L333.0 164.3L345.9 183.5L346.0 188.3L344.7 190.8L340.3 190.8L337.3 186.0L325.5 187.9L324.1 186.6L324.7 177.2L313.1 177.4L315.2 185.7L329.5 196.9L352.5 200.1L354.0 201.7L354.3 205.8L360.5 209.9L364.3 211.0L371.5 200.1L379.9 202.0L383.8 201.7L382.0 191.1L382.3 183.2L393.1 183.0L395.3 188.8L405.5 192.1L408.2 196.7L410.5 197.9L418.1 200.0L425.7 197.0L428.7 197.2L431.2 204.7L432.7 206.0L437.8 206.3L438.8 211.7L437.1 213.0L430.5 211.9L428.3 206.0L419.3 206.2L418.0 207.9L419.3 210.8L425.9 211.5L427.0 221.1L425.5 222.9L417.9 225.0L407.2 219.7L406.9 213.5L400.7 207.2L392.3 205.0L386.7 205.0L390.2 214.7L399.7 219.2L406.8 227.3L407.9 229.6L406.9 234.5L405.5 235.9L380.5 241.1L356.3 256.0L336.7 254.0L320.4 250.1L308.3 259.0L296.9 258.0L290.5 260.1L286.3 262.2L278.3 270.0L261.9 271.0L252.3 266.8L251.0 265.3L251.1 259.5L258.5 252.1L278.1 254.0L298.9 249.5L298.9 246.5L296.7 244.2L278.3 232.8L275.2 229.7L272.0 222.7L276.9 218.5L278.5 210.1L294.9 212.5L285.0 195.7L290.3 183.2L300.3 184.0L302.0 180.9L291.2 176.7L291.0 168.7L332.1 78.4ZM607.2 139.3L615.9 139.5L616.0 145.3L610.0 159.3L613.1 160.0L621.7 158.2L622.0 168.1L620.5 169.9L611.7 171.0L610.0 172.9L611.1 185.5L619.0 190.7L618.9 193.5L616.0 198.9L620.0 204.9L619.0 223.3L617.7 226.8L611.5 227.9L609.9 219.5L605.3 217.2L604.0 218.9L605.0 227.3L600.0 235.9L607.0 293.9L607.0 301.3L604.8 304.7L603.3 306.0L599.9 306.0L584.0 303.3L584.0 260.9L585.0 252.9L592.9 242.5L589.0 233.9L594.0 230.1L593.8 226.3L588.0 222.3L591.0 209.9L585.0 193.3L584.9 177.5L579.1 174.0L576.5 174.1L574.0 176.7L568.5 231.9L563.3 231.8L555.1 223.5L551.0 194.9L556.1 181.5L561.3 173.2L568.7 167.0L587.7 166.8L589.1 157.5L590.3 155.2L597.8 150.7L599.2 142.3L607.1 139.4ZM104.2 141.3L107.3 141.0L117.8 145.3L115.8 153.7L112.5 155.9L107.2 156.7L104.1 141.4ZM138.2 142.3L144.5 142.1L168.5 159.9L201.7 171.2L211.8 180.3L214.0 185.7L213.8 189.7L169.7 183.0L164.3 181.0L144.3 177.8L143.0 176.3L142.0 165.7L138.0 149.3L137.1 143.4L138.1 142.4ZM194.2 151.3L220.5 159.1L238.7 172.0L259.5 168.1L260.9 169.6L258.8 182.7L256.5 184.9L251.1 187.0L241.5 183.9L204.3 163.8L194.2 155.7L194.1 151.4ZM500.2 165.3L504.8 165.3L506.5 172.9L520.7 173.2L522.0 174.7L521.8 178.7L509.9 182.0L501.3 177.8L499.0 174.1L499.0 166.9L500.1 165.4ZM110.2 175.3L123.5 175.1L124.2 184.7L130.9 186.5L130.8 191.7L124.1 193.5L124.0 199.3L132.7 201.2L137.9 208.5L136.8 214.7L131.3 217.2L130.0 220.3L132.5 222.9L138.3 223.0L139.9 224.5L139.9 230.5L134.2 237.3L134.0 239.3L141.0 259.7L141.1 263.5L143.5 265.9L150.7 267.2L150.8 272.7L136.3 271.8L129.1 256.5L126.0 247.3L120.0 215.7L106.0 182.3L106.1 176.5L110.1 175.4ZM533.2 188.3L540.0 189.7L539.8 210.7L530.9 211.0L516.0 208.3L516.2 204.3L533.1 188.4ZM148.2 197.3L153.3 197.0L170.9 201.0L184.5 199.1L187.9 203.5L194.2 216.7L196.7 219.0L200.3 219.0L201.9 217.5L201.0 206.7L204.9 204.0L211.3 205.0L242.7 216.2L244.9 219.5L245.2 222.7L255.8 230.3L257.0 239.1L250.2 243.3L248.7 248.8L240.1 250.5L243.0 260.1L234.1 268.4L237.5 272.9L258.3 273.0L261.3 279.8L265.3 280.0L272.5 277.9L287.7 268.0L320.5 264.9L323.3 258.2L330.1 257.0L334.3 263.8L342.8 265.3L342.8 273.7L308.3 301.0L261.9 299.0L228.3 309.0L209.9 308.0L203.6 311.9L196.7 309.0L195.1 313.0L184.5 310.9L180.3 306.0L171.5 306.9L162.0 288.3L160.0 257.7L154.0 248.1L155.9 234.5L146.0 233.3L146.1 228.5L150.0 225.1L148.1 197.4ZM492.2 213.3L531.5 217.1L544.8 231.3L545.1 253.5L557.2 272.7L566.0 277.9L563.7 282.8L555.2 288.3L553.8 295.7L546.5 300.9L534.7 299.0L498.3 313.0L471.3 318.0L458.7 319.0L452.1 321.0L432.7 321.0L427.5 319.9L421.1 315.0L416.7 315.0L398.3 321.0L390.9 321.0L343.7 312.0L342.1 313.5L341.2 318.7L351.5 324.9L395.3 329.0L400.8 331.3L402.0 336.1L396.5 339.9L359.5 354.9L337.1 358.0L266.9 358.0L222.7 364.0L216.3 358.0L193.7 355.0L188.3 352.8L183.0 346.1L188.2 331.3L211.7 321.0L253.3 314.0L258.9 308.0L302.5 309.1L303.9 310.6L300.7 320.8L286.7 319.0L285.2 324.7L290.7 327.0L316.3 331.0L314.7 326.2L309.5 324.9L308.0 323.3L312.2 309.3L322.5 307.9L337.5 296.1L363.1 295.0L374.7 298.0L380.1 298.0L388.7 295.0L392.3 295.0L396.8 292.7L395.5 290.1L390.9 290.0L365.4 292.9L359.1 288.0L342.5 289.9L342.1 281.5L345.2 275.3L349.5 272.1L356.9 270.0L378.1 270.0L380.9 274.0L428.1 273.0L449.7 264.0L467.5 261.9L472.7 255.0L535.5 255.9L536.0 251.7L533.7 249.2L508.3 236.0L504.2 237.3L502.9 243.5L500.5 246.9L486.3 246.8L486.0 241.7L488.3 236.2L499.9 236.6L496.8 230.3L492.7 226.2L489.1 225.5L492.1 213.4ZM174.2 221.3L178.9 221.5L178.1 228.5L184.0 233.7L182.8 240.7L177.5 239.9L173.1 236.5L174.1 221.4ZM451.2 224.3L459.8 225.3L458.5 235.9L472.7 237.2L474.0 238.7L474.9 247.5L460.3 253.0L449.5 255.1L444.3 258.0L433.5 260.1L429.8 265.7L426.5 267.9L416.9 268.0L414.3 265.0L398.9 264.0L387.7 269.0L380.5 262.1L372.2 261.7L372.0 256.9L373.2 254.3L388.7 246.0L397.3 246.0L414.5 241.9L422.5 237.1L451.1 224.4ZM140.2 282.3L147.8 282.3L148.1 291.5L152.9 295.5L151.8 312.7L148.5 314.9L145.7 315.0L141.1 310.5L140.1 282.4ZM461.2 301.3L464.5 301.1L465.9 303.6L457.5 311.9L437.9 313.0L436.2 310.3L461.1 301.4ZM556.2 320.3L561.3 321.0L564.0 322.9L561.0 346.3L559.1 350.0L537.1 341.0L523.5 345.9L520.7 339.2L505.2 331.7L506.2 326.3L556.1 320.4ZM583.2 323.3L604.7 327.2L606.0 328.9L604.8 339.7L602.5 341.9L592.3 346.0L580.3 344.8L579.1 343.6L580.0 335.9L583.1 323.4ZM150.2 339.3L162.9 344.5L163.0 350.1L161.0 359.1L163.8 367.7L156.3 370.0L152.1 369.5L151.0 366.1L150.0 342.9L149.0 341.1L150.1 339.4Z"></path></svg>