<svg xmlns="http://www.w3.org/2000/svg" viewBox="0 0 720 322" width="720" height="322"><path fill="#141414" fill-rule="evenodd" d="M615.2 10.3L618.8 11.3L621.0 16.9L621.0 27.1L628.0 90.9L626.9 94.5L624.5 96.9L609.5 101.1L598.3 106.0L560.3 115.0L536.1 119.0L509.3 120.8L505.1 113.5L505.0 109.7L503.1 107.5L503.0 103.7L501.1 101.5L501.0 97.7L499.1 95.5L499.0 91.7L497.1 89.5L497.0 85.7L495.1 83.5L495.0 79.7L493.1 77.5L493.0 73.7L491.1 71.5L491.0 67.7L489.1 65.5L489.0 61.7L487.1 59.5L487.0 55.7L485.1 53.5L485.0 49.7L481.0 41.3L481.2 36.3L483.9 35.0L488.5 36.1L510.5 49.9L522.5 54.9L526.9 48.5L535.1 30.5L540.9 22.5L543.2 16.3L546.3 12.2L550.1 12.0L586.6 44.9L607.2 18.3L615.1 10.4ZM549.2 22.3L550.7 22.2L557.7 28.2L573.3 43.8L585.9 54.0L588.7 53.8L592.8 49.7L607.2 30.3L612.7 25.2L615.0 31.9L619.8 89.7L599.3 98.0L584.7 101.0L581.3 103.0L576.7 103.0L573.3 105.0L545.7 109.0L541.1 111.0L513.3 112.8L492.1 49.4L494.5 48.1L502.5 53.9L523.6 64.9L527.8 61.7L549.1 22.4ZM573.2 133.3L586.5 133.1L594.7 137.2L600.9 143.5L603.0 148.7L603.0 156.3L600.9 162.5L594.8 172.7L586.5 180.9L578.9 182.0L576.3 180.8L574.1 177.5L574.0 174.7L584.9 156.5L585.9 150.5L582.5 147.1L578.9 147.0L565.5 151.1L543.3 166.2L531.2 177.3L519.0 200.9L519.0 208.3L521.3 212.8L557.7 234.2L566.8 243.3L569.0 247.9L569.0 264.1L564.8 271.7L550.3 280.0L534.1 283.0L524.9 283.0L520.5 281.9L514.3 277.8L505.2 268.7L501.1 262.5L501.0 258.7L508.5 254.1L510.7 254.2L519.3 262.8L526.5 265.9L540.1 266.0L546.5 263.9L550.8 260.7L551.0 252.9L548.8 248.3L540.7 241.2L521.3 231.8L509.2 221.7L503.1 213.5L502.0 200.9L505.1 189.5L509.2 181.3L521.2 165.3L535.3 151.2L537.5 150.9L547.3 143.2L555.5 139.1L573.1 133.4ZM458.2 145.3L464.5 145.1L468.8 149.3L470.0 159.3L447.0 222.3L451.7 221.8L475.5 204.1L479.7 205.2L483.8 209.3L484.0 212.3L481.8 216.7L474.7 222.8L459.3 232.2L457.1 234.5L457.0 237.1L472.3 259.8L484.5 259.1L488.9 262.5L488.8 266.7L476.5 275.9L468.5 275.9L451.2 259.7L447.8 252.3L443.8 246.3L441.6 245.1L437.1 251.5L434.0 261.7L434.0 270.3L430.7 275.8L427.6 276.9L425.3 275.8L417.0 265.3L417.0 260.7L422.1 241.5L450.9 164.5L455.1 148.5L458.1 145.4ZM201.2 161.3L207.3 161.0L210.7 163.2L212.9 165.5L215.0 171.3L212.9 179.5L203.1 202.5L200.9 212.5L195.0 225.7L185.0 263.7L183.0 273.9L183.0 286.3L180.8 289.7L176.7 292.0L171.2 287.7L169.0 284.3L167.0 273.7L173.0 244.7L177.9 233.5L179.0 226.7L181.0 223.3L181.0 218.7L189.0 198.3L189.0 194.7L197.0 171.3L197.1 166.5L201.1 161.4ZM237.2 186.3L244.5 187.1L248.9 192.4L243.1 205.5L242.2 210.7L256.3 209.0L262.7 211.2L265.0 214.7L264.9 220.5L261.5 222.9L237.3 226.2L235.1 229.5L231.0 242.7L230.0 263.1L231.1 269.5L233.5 272.9L237.3 273.0L247.5 266.1L251.5 266.1L253.9 268.5L254.0 273.1L250.8 279.7L245.5 283.9L235.1 288.0L230.5 287.9L218.2 279.7L215.1 274.5L214.0 269.1L214.0 253.9L218.0 230.7L216.3 229.0L206.5 227.9L204.0 222.3L204.1 219.5L206.5 217.1L218.5 214.9L224.8 210.7L233.1 189.5L237.1 186.4ZM352.2 204.3L358.5 205.1L363.7 208.2L365.0 212.9L363.9 219.5L358.1 229.5L353.2 244.7L355.7 243.8L369.3 229.2L376.3 224.2L378.9 223.0L386.5 223.1L389.8 226.3L393.0 232.7L394.2 252.7L396.1 254.0L405.7 250.0L409.9 250.5L409.9 253.5L401.8 266.7L395.3 272.0L390.7 272.0L386.3 269.8L382.2 265.7L380.1 260.5L378.0 242.7L376.9 242.0L361.8 258.7L347.7 271.8L341.7 274.0L334.2 268.7L333.0 261.1L334.0 248.7L344.1 219.5L352.1 204.4ZM298.2 206.3L312.3 207.0L319.8 212.3L323.0 221.9L322.0 231.3L315.8 242.7L305.5 251.9L301.3 254.0L293.9 254.0L284.3 250.2L282.0 252.7L281.0 265.3L285.3 271.8L291.3 272.0L305.5 262.1L309.7 260.0L314.3 260.0L317.9 262.5L318.0 267.1L313.8 273.7L303.7 281.8L295.5 285.9L285.9 287.0L278.5 285.9L272.3 281.8L270.1 279.5L266.0 269.3L267.0 248.7L271.1 236.5L277.1 224.5L289.3 210.2L298.1 206.4ZM139.2 217.3L145.3 217.0L152.7 221.2L156.8 225.3L159.0 229.9L159.0 248.3L154.9 259.5L146.8 272.7L130.5 286.9L123.3 290.0L116.1 291.0L109.3 289.8L102.2 282.7L98.0 273.1L100.0 256.7L103.1 248.5L109.2 238.3L124.3 223.2L139.1 217.4ZM303.2 220.3L304.7 220.2L308.0 223.7L308.0 230.3L305.8 234.7L298.1 240.0L292.5 238.9L289.0 235.3L293.2 227.3L298.3 222.2L303.1 220.4ZM136.2 235.3L140.3 235.0L141.8 236.3L143.0 245.1L138.9 258.5L135.8 263.7L127.7 271.8L120.9 274.0L117.1 270.5L117.0 262.9L122.2 250.3L131.2 239.3L136.1 235.4Z"></path></svg>