<svg xmlns="http://www.w3.org/2000/svg" viewBox="0 0 227 360" width="227" height="360"><path fill="#111" fill-rule="evenodd" d="M107.1 14.4L115.3 15.0L136.6 23.1L145.6 27.1L156.9 35.4L172.9 57.4L174.0 61.8L173.0 80.3L178.9 85.4L181.0 92.8L178.9 99.6L173.1 103.4L168.0 129.3L162.9 143.6L157.1 152.4L160.0 158.8L160.0 174.3L163.0 179.8L162.9 188.6L158.0 193.8L163.0 234.8L163.0 253.3L164.9 256.4L165.0 283.3L161.9 337.6L159.8 339.0L158.0 337.3L160.0 317.3L160.0 265.8L158.6 261.1L154.0 293.3L146.9 318.6L140.9 326.6L137.3 329.0L129.4 328.9L125.0 322.3L129.0 304.3L132.0 269.3L131.0 239.8L128.0 221.8L131.9 220.4L135.0 232.8L136.0 280.3L134.0 299.3L130.0 312.8L130.0 320.3L132.4 324.9L135.6 324.9L138.9 321.6L145.0 308.3L153.0 269.3L157.0 234.3L157.0 217.8L153.9 198.4L150.8 197.0L129.3 202.0L105.8 202.0L80.8 198.0L70.3 194.0L67.1 195.4L67.0 205.3L65.0 211.8L64.0 251.3L69.0 271.8L72.0 293.3L80.1 315.6L84.1 322.6L86.4 324.9L89.3 325.0L92.0 321.3L92.0 313.8L86.0 293.3L85.0 278.8L83.0 275.3L82.0 260.3L83.0 226.8L85.4 223.1L87.9 224.4L86.0 255.3L88.0 277.3L97.9 319.6L95.9 325.6L92.3 329.0L85.4 328.9L78.1 322.6L72.0 307.3L65.9 282.4L63.4 279.1L65.0 317.8L64.0 321.3L66.0 342.3L63.1 343.6L60.0 335.3L58.0 242.8L60.0 206.8L62.0 202.3L63.0 191.8L57.1 184.6L57.0 178.8L61.0 171.3L59.0 156.8L62.9 147.4L56.1 133.6L48.9 106.4L45.4 104.9L40.1 98.6L40.0 92.8L44.1 86.4L48.0 84.3L47.0 78.8L49.0 62.8L47.1 54.4L53.1 44.4L71.4 26.1L92.8 18.0L107.0 14.5ZM75.1 76.4L82.3 76.0L91.6 79.1L101.6 83.1L101.9 85.6L94.6 92.9L87.3 97.0L75.3 99.0L64.4 97.9L62.0 91.3L63.1 85.4L69.4 78.1L75.0 76.5ZM138.1 76.4L145.3 76.0L155.9 81.4L160.0 88.8L158.9 97.6L151.3 100.0L135.8 98.0L128.4 93.9L120.1 86.6L120.1 84.4L122.4 82.1L138.0 76.5ZM137.1 80.4L144.6 80.1L147.0 83.8L146.9 87.6L142.3 91.0L137.4 89.9L135.0 86.3L135.1 82.4L137.0 80.5ZM83.1 82.4L89.6 83.1L92.9 87.4L91.9 89.6L88.6 92.9L85.4 92.9L81.0 88.3L81.1 84.4L83.0 82.5ZM174.1 87.4L176.9 89.4L176.9 95.6L174.1 97.6L174.0 87.5ZM46.1 90.4L47.9 100.6L46.4 100.9L44.0 97.3L44.0 92.8L46.0 90.5ZM106.1 121.4L115.3 122.0L123.6 127.1L129.0 134.8L127.9 140.6L116.3 146.0L100.4 144.9L95.1 139.6L95.0 129.8L97.4 126.1L106.0 121.5Z"></path></svg>